<svg width="19" height="18" viewBox="0 0 19 18" fill="none" xmlns="http://www.w3.org/2000/svg">
<path d="M1.048 17.938H17.948C18.0806 17.938 18.2078 17.8853 18.3016 17.7915C18.3953 17.6978 18.448 17.5706 18.448 17.438C18.448 17.3054 18.3953 17.1782 18.3016 17.0844C18.2078 16.9907 18.0806 16.938 17.948 16.938H1.048C0.915396 16.938 0.788219 16.9907 0.694451 17.0844C0.600682 17.1782 0.548004 17.3054 0.548004 17.438C0.548004 17.5706 0.600682 17.6978 0.694451 17.7915C0.788219 17.8853 0.915396 17.938 1.048 17.938ZM7.21 14.18C7.63218 14.0612 8.01747 13.8376 8.33 13.53L17.87 3.98999C18.1967 3.662 18.3801 3.21793 18.3801 2.75499C18.3801 2.29205 18.1967 1.84798 17.87 1.51999L16.93 0.589989C16.5971 0.2727 16.1549 0.0957031 15.695 0.0957031C15.2351 0.0957031 14.7929 0.2727 14.46 0.589989L4.92 10.12C4.61237 10.4309 4.39169 10.8171 4.28 11.24L3.54 14C3.50521 14.1261 3.50447 14.2591 3.53784 14.3856C3.57122 14.5121 3.63752 14.6275 3.73 14.72C3.87172 14.8589 4.06159 14.9377 4.26 14.94L7.21 14.18ZM7.62 12.82C7.43559 13.0076 7.20421 13.1423 6.95 13.21L5.98 13.47L4.98 12.47L5.24 11.5C5.30905 11.2463 5.44354 11.0153 5.63 10.83L6.01 10.46L8 12.45L7.62 12.82ZM8.71 11.74L6.72 9.74999L13.45 3.01999L15.44 5.00999L8.71 11.74ZM17.16 3.28999L16.15 4.29999L14.16 2.30999L15.17 1.28999C15.3106 1.14954 15.5013 1.07065 15.7 1.07065C15.8988 1.07065 16.0894 1.14954 16.23 1.28999L17.16 2.22999C17.2995 2.37113 17.3777 2.56156 17.3777 2.75999C17.3777 2.95842 17.2995 3.14885 17.16 3.28999Z" fill="black"/>
</svg>
