<svg width="11" height="3" viewBox="0 0 11 3" fill="none" xmlns="http://www.w3.org/2000/svg">
<path d="M0.352234 1.74957C0.352234 1.45758 0.449565 1.2206 0.644226 1.03864C0.838888 0.856669 1.08645 0.765686 1.3869 0.765686C1.68736 0.765686 1.93492 0.856669 2.12958 1.03864C2.32847 1.2206 2.42792 1.45758 2.42792 1.74957C2.42792 2.04156 2.32847 2.27854 2.12958 2.46051C1.93068 2.63824 1.68313 2.72711 1.3869 2.72711C1.08221 2.72711 0.83254 2.63613 0.637878 2.45416C0.447449 2.26796 0.352234 2.0331 0.352234 1.74957ZM4.27509 1.74957C4.27509 1.45758 4.37242 1.2206 4.56708 1.03864C4.76174 0.856669 5.0093 0.765686 5.30975 0.765686C5.61021 0.765686 5.85777 0.856669 6.05243 1.03864C6.25132 1.2206 6.35077 1.45758 6.35077 1.74957C6.35077 2.04156 6.25132 2.27854 6.05243 2.46051C5.85354 2.63824 5.60598 2.72711 5.30975 2.72711C5.00507 2.72711 4.75539 2.63613 4.56073 2.45416C4.3703 2.26796 4.27509 2.0331 4.27509 1.74957ZM8.19794 1.74957C8.19794 1.45758 8.29527 1.2206 8.48993 1.03864C8.68459 0.856669 8.93215 0.765686 9.2326 0.765686C9.53306 0.765686 9.78062 0.856669 9.97528 1.03864C10.1742 1.2206 10.2736 1.45758 10.2736 1.74957C10.2736 2.04156 10.1742 2.27854 9.97528 2.46051C9.77639 2.63824 9.52883 2.72711 9.2326 2.72711C8.92792 2.72711 8.67824 2.63613 8.48358 2.45416C8.29315 2.26796 8.19794 2.0331 8.19794 1.74957Z" fill="black"/>
</svg>
